<!-- Source: Lucide v1.16.0 icon: badge-question-mark; License: ISC -->
<!-- @license lucide-static v1.16.0 - ISC -->
<svg
  class="lucide lucide-badge-question-mark"
  xmlns="http://www.w3.org/2000/svg"
  width="24"
  height="24"
  viewBox="0 0 24 24"
  fill="none"
  stroke="currentColor"
  stroke-width="2"
  stroke-linecap="round"
  stroke-linejoin="round"
>
  <path stroke="currentColor" fill="none" stroke-width="2" stroke-linecap="round" stroke-linejoin="round" d="M3.85 8.62a4 4 0 0 1 4.78-4.77 4 4 0 0 1 6.74 0 4 4 0 0 1 4.78 4.78 4 4 0 0 1 0 6.74 4 4 0 0 1-4.77 4.78 4 4 0 0 1-6.75 0 4 4 0 0 1-4.78-4.77 4 4 0 0 1 0-6.76Z" />
  <path stroke="currentColor" fill="none" stroke-width="2" stroke-linecap="round" stroke-linejoin="round" d="M9.09 9a3 3 0 0 1 5.83 1c0 2-3 3-3 3" />
  <line stroke="currentColor" fill="none" stroke-width="2" stroke-linecap="round" stroke-linejoin="round" x1="12" x2="12.01" y1="17" y2="17" />
</svg>
